<svg id="Group_3413" data-name="Group 3413" xmlns="http://www.w3.org/2000/svg" width="40" height="40" viewBox="0 0 40 40">
  <circle id="Ellipse_5" data-name="Ellipse 5" cx="20" cy="20" r="20" fill="#ede5d6"/>
  <path id="Icon_awesome-microphone" data-name="Icon awesome-microphone" d="M7.455,14.91a4.066,4.066,0,0,0,4.066-4.066V4.066a4.066,4.066,0,0,0-8.133,0v6.777A4.066,4.066,0,0,0,7.455,14.91Zm6.777-6.777h-.678a.678.678,0,0,0-.678.678v2.033a5.428,5.428,0,0,1-5.964,5.4A5.586,5.586,0,0,1,2.033,10.6V8.81a.678.678,0,0,0-.678-.678H.678A.678.678,0,0,0,0,8.81v1.7a7.688,7.688,0,0,0,6.438,7.7v1.447H4.066a.678.678,0,0,0-.678.678v.678a.678.678,0,0,0,.678.678h6.777a.678.678,0,0,0,.678-.678v-.678a.678.678,0,0,0-.678-.678H8.472v-1.43a7.462,7.462,0,0,0,6.438-7.38V8.81A.678.678,0,0,0,14.232,8.133Z" transform="translate(13 9)" fill="#273d3f"/>
</svg>
