<svg id="Group_3409" data-name="Group 3409" xmlns="http://www.w3.org/2000/svg" width="40" height="40" viewBox="0 0 40 40">
  <circle id="Ellipse_5" data-name="Ellipse 5" cx="20" cy="20" r="20" fill="#ede5d6"/>
  <g id="_753119_newspaper_media_news_paper_press_icon" data-name="753119_newspaper_media_news_paper_press_icon" transform="translate(10.356 11.48)">
    <path id="Path_29387" data-name="Path 29387" d="M17.162,2.63H5.084A1.275,1.275,0,0,0,3.81,3.9V5.041h.007V15.327a2.352,2.352,0,0,1-.2,1.17,2.014,2.014,0,0,1-.1.2c0,.007-.007.015-.012.022l0,0a1.72,1.72,0,0,1-.865.716,4.449,4.449,0,0,0,.306-2.018c0-.586,0-6.4,0-9.431-.386,0-.845,0-1.359-.008A1.494,1.494,0,0,0,.036,7.509v9.126a4.22,4.22,0,0,0,.092.811,4.234,4.234,0,0,0,.61,1.239,2.287,2.287,0,0,0,1.572.853H17.378a1.169,1.169,0,0,0,.425-.091,1.267,1.267,0,0,0,.634-1.1V3.9A1.275,1.275,0,0,0,17.162,2.63ZM14.8,15.4H7.226s-.4-.055-.391-.391a.371.371,0,0,1,.391-.39h7.588s.533-.042.527.391C15.34,15.163,15.329,15.4,14.8,15.4Zm0-1.986H7.226s-.4-.056-.391-.391a.371.371,0,0,1,.391-.391h7.588s.533-.043.527.391C15.34,13.177,15.329,13.409,14.8,13.409Zm0-1.905H7.226s-.4-.056-.391-.391a.371.371,0,0,1,.391-.39h7.588s.533-.043.527.391C15.34,11.272,15.329,11.5,14.8,11.5Zm.065-1.979H7.291s-.4-.056-.391-.391a.37.37,0,0,1,.391-.39h7.588s.533-.043.527.391C15.406,9.293,15.393,9.525,14.862,9.525Zm0-1.97H7.291s-.4-.056-.391-.391a.37.37,0,0,1,.391-.39h7.588s.533-.043.527.39C15.406,7.323,15.393,7.555,14.862,7.555Z" transform="translate(-0.036 -2.63)" fill="#273d3f"/>
  </g>
</svg>
