<svg xmlns="http://www.w3.org/2000/svg" width="48.31" height="44.786" viewBox="0 0 48.31 44.786">
  <g id="Group_3405" data-name="Group 3405" opacity="0.5">
    <g id="Group_3404" data-name="Group 3404">
      <path id="Path_29391" data-name="Path 29391" d="M66.228,39.149c-.4,6.574-3.415,16.417-15.471,26a3.1,3.1,0,0,1-4.422-.571,3.269,3.269,0,0,1,.56-4.523c9.817-7.8,12.5-15.436,12.978-20.677a9.3,9.3,0,0,1-4.652,1.282,9.807,9.807,0,0,1,0-19.608,8.975,8.975,0,0,1,3.344.724l-.039-.077a8.637,8.637,0,0,1,1.107.519.7.7,0,0,0,.1.039c.019.013.032.026.052.039A9.868,9.868,0,0,1,61.3,23.352c.241.205.442.442.664.666C64.322,26.328,66.912,30.743,66.228,39.149ZM27.613,40.655a9.807,9.807,0,0,1,0-19.608,8.975,8.975,0,0,1,3.344.724l-.032-.077a8.637,8.637,0,0,1,1.107.519.7.7,0,0,0,.1.039c.019.013.032.026.052.039A9.868,9.868,0,0,1,33.7,23.35c.241.205.442.442.664.666,2.362,2.314,4.958,6.729,4.268,15.141-.4,6.574-3.415,16.417-15.471,26a3.1,3.1,0,0,1-4.422-.571,3.269,3.269,0,0,1,.56-4.523c9.817-7.8,12.5-15.436,12.978-20.677A9.495,9.495,0,0,1,27.613,40.655Z" transform="translate(-18.029 -21.047)" fill="#a37f52"/>
    </g>
  </g>
</svg>
