<svg xmlns="http://www.w3.org/2000/svg" width="40" height="40" viewBox="0 0 40 40">
  <g id="Group_142401" data-name="Group 142401" transform="translate(-255 -3078)">
    <g id="Group_142400" data-name="Group 142400" transform="translate(1385 6)">
      <g id="Group_3454" data-name="Group 3454" transform="translate(-1130 3072)">
        <circle id="Ellipse_5" data-name="Ellipse 5" cx="20" cy="20" r="20" fill="#ede5d6"/>
      </g>
    </g>
    <g id="noun-share-1201435" transform="translate(176.169 3075.006)">
      <path id="Path_29401" data-name="Path 29401" d="M119.753,25.718a3.185,3.185,0,0,0-2.352,1.062l-4.857-2.789a3.353,3.353,0,0,0,.152-.987,3.454,3.454,0,0,0-.152-.987L117.4,19.23a3.144,3.144,0,1,0-.8-2.087,3.454,3.454,0,0,0,.152.987L111.9,20.919a3.147,3.147,0,1,0-2.352,5.236,3.185,3.185,0,0,0,2.352-1.062l4.857,2.789a3.354,3.354,0,0,0-.152.987,3.149,3.149,0,0,0,6.3,0,3.178,3.178,0,0,0-3.149-3.149Z" transform="translate(-16.566)" fill="#273d3f"/>
    </g>
  </g>
</svg>
